<?xml version="1.0" encoding="utf-8"?>
<!-- Generator: Adobe Illustrator 26.5.2, SVG Export Plug-In . SVG Version: 6.00 Build 0)  -->
<svg version="1.1" id="Layer_1" xmlns="http://www.w3.org/2000/svg" xmlns:xlink="http://www.w3.org/1999/xlink" x="0px" y="0px"
	 viewBox="0 0 1125 2436" style="enable-background:new 0 0 1125 2436;" xml:space="preserve">
<style type="text/css">
	.st0{fill:#0000FF;}
</style>
<g>
	<path class="st0" d="M334.8,1809.3h113l67.8,478.4H407.2l-10.1-98.3H220.9l-53.9,98.3H62.5L334.8,1809.3z M265.4,2106.9h121.4
		l-19.8-188.3L265.4,2106.9z"/>
	<path class="st0" d="M677.9,1809.3h101.6l-62.6,294.1c-6.9,32.9-8.1,56.9-3.6,72.1c6.5,26.8,30.1,40.2,70.8,40.2
		c40.5,0,69.6-13.4,87.3-40.2c11-15.1,20-39.2,26.9-72.1l62.6-294.1h101.6l-62.6,294.1c-10.8,50.9-27.2,90.4-49,118.8
		c-40.5,51.9-102.1,77.9-185,77.9c-82.9,0-133.6-26-152.2-77.9c-9.7-28.3-9.2-67.9,1.6-118.8L677.9,1809.3z"/>
</g>
</svg>
